<svg xmlns="http://www.w3.org/2000/svg" xmlns:xlink="http://www.w3.org/1999/xlink" version="1.1" id="Your_Icon" x="0px" y="0px" width="100px" height="100px" viewBox="0 0 100 100" enable-background="new 0 0 100 100" xml:space="preserve">
<path d="M97.926,87.61c-1.719-2.011-2.979-3.625-3.992-6.511c-2.095-7.791,0.355-16.72,0.355-16.72l-0.014,0.009  c1.607-4.813,2.491-9.957,2.491-15.311c0-26.723-21.665-48.384-48.383-48.384C21.665,0.694,0,22.195,0,48.917  C0,69.598,12.981,87,31.232,94h-0.009c0,0,0.114,0.207,0.322,0.283c2.392,0.889,4.874,1.672,7.428,2.174  c9.888,2.232,28.944,4.802,55.476,0.356C101.04,95.683,101.166,91.405,97.926,87.61z M50.004,70.137  c-2.257,0-4.087-1.828-4.087-4.086s1.83-4.09,4.087-4.09c2.258,0,4.088,1.832,4.088,4.09S52.263,70.137,50.004,70.137z   M56.602,51.766C55.52,52.498,54,53.041,53,53.383v2.678c0,1.764-1.236,3.193-3,3.193c-1.763,0-3-1.43-3-3.193V50.62  c0-1.763,1.333-3.191,3.097-3.191c1.119,0,2.152-0.33,3.075-0.953c1.544-1.045,2.44-2.778,2.44-4.638  c0-3.082-2.52-5.588-5.601-5.588s-5.594,2.507-5.594,5.588c0,1.763-1.433,3.193-3.197,3.193c-1.763,0-3.194-1.43-3.194-3.193  c0-6.603,5.371-11.975,11.974-11.975c6.604,0,11.926,5.372,11.926,11.975C61.927,45.821,59.906,49.534,56.602,51.766z"/>
</svg>