<?xml version="1.0" encoding="utf-8"?>
<!-- Generator: Adobe Illustrator 16.0.0, SVG Export Plug-In . SVG Version: 6.00 Build 0)  -->
<!DOCTYPE svg PUBLIC "-//W3C//DTD SVG 1.1//EN" "http://www.w3.org/Graphics/SVG/1.1/DTD/svg11.dtd">
<svg version="1.1" id="Layer_2" xmlns="http://www.w3.org/2000/svg" xmlns:xlink="http://www.w3.org/1999/xlink" x="0px" y="0px"
	 width="108.81px" height="42.77px" viewBox="0 0 108.81 42.77" enable-background="new 0 0 108.81 42.77" xml:space="preserve">
<g>
	<g>
		<g>
			<path fill="#FFFFFF" d="M11.04,1.82c-0.3,0-0.58,0.04-0.85,0.12C9.91,2.03,9.68,2.14,9.47,2.3c-0.2,0.16-0.36,0.34-0.48,0.57
				C8.88,3.1,8.82,3.36,8.82,3.66v4.27c0,0.64,0.21,1.11,0.64,1.4c0.42,0.29,0.96,0.44,1.6,0.44c0.56,0,1.08-0.08,1.56-0.23
				c0.48-0.15,0.91-0.4,1.28-0.73l0.89,1.51c-0.56,0.5-1.15,0.83-1.75,1.01s-1.27,0.27-1.99,0.27c-0.61,0-1.17-0.08-1.7-0.23
				S8.38,10.97,8,10.66c-0.38-0.3-0.68-0.68-0.9-1.14c-0.22-0.46-0.33-0.99-0.33-1.6V3.66c0-0.57,0.11-1.09,0.34-1.54
				c0.23-0.45,0.53-0.83,0.92-1.15c0.39-0.31,0.84-0.55,1.36-0.72C9.9,0.08,10.45,0,11.04,0c0.45,0,0.85,0.03,1.2,0.09
				c0.35,0.06,0.66,0.16,0.94,0.29c0.28,0.13,0.55,0.3,0.79,0.5c0.25,0.2,0.5,0.43,0.77,0.69l-1.13,1.39
				c-0.35-0.33-0.73-0.6-1.13-0.82C12.08,1.93,11.6,1.82,11.04,1.82"/>
			<path fill="#FFFFFF" d="M19.27,4.93c-0.2,0-0.39,0.03-0.56,0.08c-0.18,0.05-0.33,0.13-0.47,0.24c-0.14,0.1-0.25,0.23-0.33,0.39
				c-0.08,0.16-0.12,0.33-0.12,0.53v0.66l2.8-0.4V5.99c0-0.4-0.12-0.67-0.35-0.83C19.99,5.01,19.67,4.93,19.27,4.93 M19.7,9.76
				c0.21,0,0.43-0.02,0.65-0.07c0.23-0.04,0.45-0.1,0.66-0.18c0.22-0.08,0.42-0.17,0.61-0.28C21.81,9.12,21.97,9,22.1,8.88L23,10.34
				c-0.5,0.46-1.03,0.79-1.59,0.97c-0.56,0.18-1.18,0.27-1.84,0.27c-0.54,0-1.05-0.06-1.51-0.19c-0.47-0.13-0.88-0.32-1.22-0.59
				c-0.35-0.27-0.62-0.6-0.81-1c-0.19-0.4-0.29-0.88-0.29-1.41V6.17c0-0.5,0.09-0.93,0.28-1.31c0.19-0.37,0.44-0.69,0.76-0.94
				c0.32-0.25,0.7-0.45,1.14-0.58c0.44-0.13,0.91-0.2,1.41-0.2c0.45,0,0.88,0.07,1.29,0.21c0.41,0.14,0.77,0.33,1.08,0.59
				C22,4.19,22.24,4.5,22.43,4.87c0.18,0.37,0.27,0.78,0.27,1.23v1.37l-4.91,0.71v0.2c0,0.22,0.06,0.42,0.17,0.59
				c0.12,0.17,0.27,0.31,0.45,0.43c0.18,0.12,0.39,0.21,0.62,0.26C19.26,9.73,19.48,9.76,19.7,9.76"/>
			<path fill="#FFFFFF" d="M28.7,3.14c0.98,0,1.69,0.26,2.12,0.78c0.43,0.52,0.65,1.27,0.65,2.25v5.24h-2.05V6.53
				c0-0.45-0.1-0.83-0.31-1.12c-0.21-0.3-0.54-0.45-0.99-0.45c-0.22,0-0.44,0.05-0.65,0.13c-0.21,0.09-0.41,0.21-0.57,0.35
				c-0.16,0.15-0.3,0.32-0.4,0.51c-0.1,0.19-0.15,0.4-0.15,0.62v4.83h-2.05V3.31h1.77l0.28,1.19c0.31-0.42,0.65-0.75,1.02-0.99
				C27.73,3.26,28.17,3.14,28.7,3.14"/>
			<path fill="#FFFFFF" d="M36.4,9.79c0.12,0,0.29-0.02,0.5-0.05c0.21-0.03,0.41-0.08,0.61-0.13l0.73-0.18l0.43,1.44
				c-0.1,0.04-0.25,0.1-0.45,0.18c-0.2,0.08-0.42,0.15-0.66,0.22c-0.24,0.07-0.47,0.13-0.69,0.18c-0.23,0.05-0.41,0.08-0.55,0.08
				c-0.76,0-1.36-0.16-1.79-0.46c-0.44-0.31-0.65-0.84-0.65-1.6V4.71h-1.49V3.31h1.51V0.93h2.04v2.38h1.97v1.41H35.9V9.2
				c0,0.15,0.04,0.29,0.13,0.41S36.24,9.79,36.4,9.79"/>
			<path fill="#FFFFFF" d="M43.44,3.14c0.39,0,0.68,0.04,0.89,0.13l-0.42,1.8C43.84,5.05,43.71,5.02,43.55,5
				c-0.16-0.02-0.32-0.03-0.47-0.03c-0.16,0-0.33,0.03-0.5,0.08c-0.17,0.05-0.31,0.13-0.44,0.24c-0.13,0.11-0.23,0.24-0.31,0.4
				c-0.08,0.16-0.12,0.34-0.12,0.56v5.18h-2.05V3.31h1.42l0.43,1.21c0.08-0.19,0.18-0.37,0.31-0.53s0.29-0.31,0.46-0.44
				c0.18-0.13,0.36-0.22,0.56-0.3C43.05,3.18,43.25,3.14,43.44,3.14"/>
			<path fill="#FFFFFF" d="M49.96,6.19c0-0.4-0.15-0.7-0.46-0.91c-0.3-0.21-0.65-0.31-1.05-0.31c-0.21,0-0.41,0.03-0.6,0.07
				c-0.19,0.05-0.36,0.13-0.5,0.23S47.09,5.5,47,5.66c-0.09,0.15-0.13,0.33-0.13,0.53v2.33c0,0.42,0.16,0.73,0.47,0.93
				c0.31,0.2,0.68,0.31,1.1,0.31c0.41,0,0.76-0.1,1.07-0.31c0.3-0.2,0.46-0.52,0.46-0.93V6.19z M48.46,3.14
				c1.14,0,2.01,0.26,2.63,0.79c0.62,0.53,0.93,1.28,0.93,2.25v2.33c0,0.49-0.1,0.92-0.29,1.3c-0.19,0.38-0.45,0.7-0.78,0.96
				c-0.32,0.26-0.7,0.46-1.13,0.59c-0.43,0.14-0.89,0.21-1.37,0.21c-0.5,0-0.96-0.07-1.4-0.2c-0.44-0.13-0.82-0.33-1.15-0.59
				c-0.33-0.26-0.59-0.58-0.79-0.96c-0.19-0.38-0.29-0.82-0.29-1.32V6.19c0-0.48,0.09-0.92,0.26-1.29c0.17-0.38,0.43-0.69,0.75-0.95
				c0.32-0.26,0.71-0.46,1.16-0.59C47.44,3.21,47.93,3.14,48.46,3.14"/>
			<path fill="#FFFFFF" d="M5.74,19.73c0-0.33-0.07-0.62-0.2-0.85c-0.13-0.24-0.31-0.44-0.55-0.6C4.77,18.12,4.5,18,4.2,17.93
				c-0.3-0.08-0.61-0.12-0.94-0.12c-0.32,0-0.62,0.05-0.89,0.14c-0.28,0.09-0.52,0.23-0.73,0.4c-0.21,0.17-0.37,0.38-0.49,0.64
				c-0.12,0.25-0.17,0.54-0.17,0.86v2.55c0,0.67,0.22,1.18,0.65,1.53c0.44,0.34,0.99,0.51,1.66,0.51c0.32,0,0.63-0.04,0.92-0.12
				c0.29-0.08,0.55-0.2,0.78-0.35c0.23-0.16,0.41-0.36,0.55-0.61c0.14-0.24,0.21-0.52,0.21-0.84V19.73z M5.74,13.28H6.7v11.91H5.86
				L5.74,24.1c-0.29,0.45-0.67,0.78-1.15,0.97c-0.48,0.19-0.97,0.29-1.48,0.29c-0.46,0-0.88-0.07-1.27-0.2
				c-0.38-0.13-0.71-0.33-0.98-0.59C0.58,24.31,0.37,24,0.22,23.63S0,22.86,0,22.39v-2.55c0-0.46,0.08-0.88,0.22-1.24
				c0.15-0.36,0.36-0.67,0.64-0.93c0.27-0.25,0.6-0.45,0.98-0.58c0.38-0.13,0.8-0.2,1.27-0.2c0.52,0,1.02,0.09,1.49,0.28
				c0.48,0.19,0.86,0.49,1.14,0.91V13.28z"/>
			<path fill="#FFFFFF" d="M11.88,17.83c-0.32,0-0.62,0.04-0.9,0.13c-0.28,0.09-0.53,0.22-0.74,0.38c-0.22,0.17-0.39,0.36-0.51,0.58
				c-0.13,0.22-0.19,0.46-0.19,0.73v1.08l4.48-0.65v-0.46c0-0.52-0.2-0.94-0.6-1.28C13.01,18,12.5,17.83,11.88,17.83 M12.19,24.44
				c0.3,0,0.58-0.03,0.84-0.08c0.26-0.05,0.49-0.12,0.7-0.2c0.21-0.08,0.39-0.16,0.55-0.25c0.15-0.09,0.28-0.17,0.36-0.25l0.48,0.7
				c-0.39,0.34-0.84,0.59-1.37,0.75c-0.53,0.16-1.06,0.24-1.59,0.24c-0.47,0-0.93-0.06-1.37-0.17c-0.44-0.12-0.82-0.29-1.15-0.53
				c-0.33-0.24-0.6-0.54-0.79-0.89c-0.2-0.36-0.29-0.79-0.29-1.28v-2.83c0-0.41,0.09-0.78,0.26-1.12c0.17-0.33,0.41-0.62,0.71-0.86
				c0.3-0.24,0.65-0.42,1.06-0.55c0.41-0.13,0.84-0.2,1.31-0.2c0.45,0,0.87,0.07,1.24,0.2c0.38,0.13,0.7,0.32,0.98,0.55
				c0.28,0.24,0.5,0.52,0.65,0.85c0.15,0.33,0.23,0.7,0.23,1.11v1.09l-5.48,0.79v0.96c0,0.33,0.07,0.62,0.22,0.87
				c0.15,0.25,0.35,0.46,0.6,0.62c0.25,0.17,0.53,0.29,0.85,0.36C11.52,24.41,11.85,24.44,12.19,24.44"/>
			<path fill="#FFFFFF" d="M24.06,15.59c-0.3,0-0.58,0.04-0.85,0.12c-0.27,0.08-0.51,0.2-0.71,0.36c-0.2,0.15-0.36,0.35-0.48,0.57
				s-0.17,0.49-0.17,0.79v4.27c0,0.64,0.21,1.11,0.64,1.4c0.42,0.29,0.96,0.44,1.6,0.44c0.56,0,1.08-0.08,1.56-0.23
				c0.48-0.15,0.91-0.4,1.28-0.73l0.89,1.5c-0.56,0.5-1.14,0.83-1.75,1.01c-0.6,0.18-1.27,0.26-1.99,0.26
				c-0.61,0-1.17-0.08-1.7-0.23c-0.52-0.15-0.98-0.38-1.36-0.69c-0.38-0.3-0.68-0.68-0.9-1.14c-0.22-0.46-0.33-0.99-0.33-1.6v-4.27
				c0-0.57,0.11-1.09,0.34-1.54c0.22-0.45,0.53-0.83,0.92-1.15c0.39-0.31,0.84-0.55,1.36-0.72c0.52-0.16,1.07-0.25,1.65-0.25
				c0.45,0,0.85,0.03,1.2,0.09c0.35,0.06,0.66,0.16,0.94,0.29c0.28,0.13,0.55,0.3,0.79,0.5c0.25,0.2,0.5,0.43,0.77,0.7l-1.12,1.39
				c-0.35-0.33-0.73-0.6-1.13-0.82C25.1,15.7,24.62,15.59,24.06,15.59"/>
			<path fill="#FFFFFF" d="M34.13,17.08h2.05v5.23c0,0.5-0.09,0.93-0.28,1.31c-0.19,0.38-0.44,0.69-0.76,0.95
				c-0.32,0.26-0.7,0.46-1.13,0.59c-0.44,0.13-0.9,0.2-1.38,0.2c-0.5,0-0.96-0.07-1.39-0.2c-0.43-0.13-0.81-0.33-1.12-0.59
				c-0.32-0.26-0.57-0.58-0.75-0.95c-0.18-0.37-0.27-0.81-0.27-1.31v-5.23h2.05v5.23c0,0.42,0.14,0.73,0.43,0.93s0.64,0.3,1.06,0.3
				c0.4,0,0.75-0.1,1.05-0.31c0.3-0.2,0.46-0.51,0.46-0.92V17.08z"/>
			<rect x="37.94" y="13.44" fill="#FFFFFF" width="2.05" height="11.75"/>
			<path fill="#FFFFFF" d="M45.1,23.57c0.12,0,0.29-0.02,0.5-0.05c0.21-0.03,0.41-0.08,0.61-0.13l0.73-0.18l0.43,1.44
				c-0.1,0.04-0.25,0.1-0.46,0.18c-0.2,0.08-0.42,0.15-0.66,0.22c-0.24,0.07-0.47,0.13-0.69,0.18c-0.23,0.05-0.41,0.07-0.55,0.07
				c-0.76,0-1.36-0.15-1.79-0.46c-0.44-0.31-0.65-0.84-0.65-1.6v-4.75h-1.49v-1.41h1.51V14.7h2.03v2.38h1.97v1.41H44.6v4.48
				c0,0.15,0.04,0.29,0.13,0.41C44.82,23.51,44.94,23.57,45.1,23.57"/>
			<path fill="#FFFFFF" d="M53.34,17.08h2.05v5.23c0,0.5-0.09,0.93-0.28,1.31c-0.19,0.38-0.44,0.69-0.76,0.95
				c-0.32,0.26-0.7,0.46-1.13,0.59c-0.44,0.13-0.9,0.2-1.38,0.2c-0.5,0-0.96-0.07-1.39-0.2c-0.43-0.13-0.8-0.33-1.12-0.59
				c-0.32-0.26-0.57-0.58-0.75-0.95c-0.18-0.37-0.27-0.81-0.27-1.31v-5.23h2.05v5.23c0,0.42,0.14,0.73,0.43,0.93
				c0.29,0.2,0.64,0.3,1.06,0.3c0.4,0,0.75-0.1,1.05-0.31c0.3-0.2,0.46-0.51,0.46-0.92V17.08z"/>
			<path fill="#FFFFFF" d="M60.86,16.92c0.39,0,0.69,0.04,0.89,0.13l-0.41,1.8c-0.09-0.03-0.21-0.06-0.37-0.08
				c-0.16-0.02-0.32-0.03-0.47-0.03c-0.17,0-0.33,0.02-0.5,0.07s-0.31,0.13-0.44,0.24c-0.13,0.11-0.23,0.24-0.31,0.4
				c-0.08,0.16-0.12,0.34-0.12,0.56v5.18h-2.05v-8.11h1.42l0.43,1.21c0.08-0.19,0.18-0.36,0.31-0.53c0.13-0.17,0.29-0.31,0.46-0.44
				c0.18-0.13,0.36-0.23,0.56-0.3C60.47,16.95,60.67,16.92,60.86,16.92"/>
			<path fill="#FFFFFF" d="M66.87,21.45l-2.58,0.45v0.59c0,0.33,0.08,0.59,0.24,0.78c0.16,0.19,0.41,0.28,0.74,0.28
				c0.17,0,0.34-0.02,0.53-0.06c0.19-0.04,0.36-0.1,0.52-0.18c0.16-0.08,0.29-0.19,0.4-0.31c0.11-0.13,0.16-0.28,0.16-0.46V21.45z
				 M65.8,16.92c1,0,1.79,0.24,2.35,0.73c0.56,0.49,0.84,1.23,0.84,2.23v5.31h-1.62l-0.35-1.06c-0.25,0.47-0.58,0.79-0.97,0.94
				c-0.39,0.16-0.85,0.23-1.36,0.23c-0.83,0-1.44-0.25-1.85-0.74c-0.4-0.49-0.6-1.15-0.6-1.98V20.9l4.7-0.81v-0.22
				c0-0.46-0.12-0.78-0.36-0.96c-0.24-0.18-0.59-0.27-1.05-0.27c-0.17,0-0.36,0.02-0.57,0.07s-0.44,0.1-0.66,0.17
				c-0.23,0.07-0.44,0.15-0.64,0.24c-0.2,0.09-0.36,0.17-0.5,0.25l-0.63-1.34c0.21-0.14,0.45-0.29,0.71-0.42
				c0.26-0.14,0.54-0.26,0.84-0.36s0.58-0.19,0.88-0.25C65.25,16.95,65.53,16.92,65.8,16.92"/>
			<path fill="#FFFFFF" d="M19.94,31.35c0-0.32-0.05-0.59-0.16-0.83c-0.11-0.23-0.26-0.42-0.46-0.57c-0.2-0.15-0.43-0.25-0.71-0.32
				c-0.27-0.07-0.57-0.1-0.89-0.1h-1.7v7.61h1.52c0.32,0,0.62-0.04,0.91-0.1c0.29-0.07,0.55-0.17,0.77-0.32
				c0.22-0.15,0.4-0.34,0.53-0.57c0.13-0.23,0.2-0.51,0.2-0.84V31.35z M17.72,27.71c0.63,0,1.21,0.07,1.73,0.21s0.97,0.36,1.35,0.66
				c0.38,0.3,0.67,0.68,0.88,1.13c0.21,0.46,0.31,1,0.31,1.63v3.97c0,0.63-0.12,1.17-0.35,1.63c-0.23,0.46-0.55,0.84-0.95,1.13
				c-0.4,0.3-0.87,0.52-1.41,0.66c-0.54,0.14-1.12,0.22-1.74,0.22H14V27.71H17.72z"/>
			<path fill="#FFFFFF" d="M23.72,30.86h2.05v8.11h-2.05V30.86z M23.72,27.71h2.05v2.08h-2.05V27.71z"/>
			<path fill="#FFFFFF" d="M29.45,34.05c0,0.19,0.04,0.35,0.13,0.49c0.09,0.14,0.2,0.26,0.35,0.35c0.14,0.09,0.31,0.16,0.49,0.21
				c0.18,0.04,0.37,0.07,0.55,0.07c0.19,0,0.37-0.02,0.55-0.07c0.18-0.04,0.34-0.11,0.49-0.2c0.14-0.09,0.26-0.2,0.34-0.34
				c0.08-0.14,0.12-0.31,0.12-0.5v-0.51c0-0.19-0.04-0.35-0.13-0.49c-0.09-0.14-0.2-0.25-0.35-0.34c-0.14-0.09-0.3-0.16-0.48-0.21
				c-0.18-0.05-0.36-0.07-0.55-0.07c-0.19,0-0.37,0.02-0.55,0.07c-0.18,0.05-0.34,0.12-0.49,0.21c-0.14,0.09-0.26,0.2-0.35,0.34
				c-0.09,0.14-0.13,0.3-0.13,0.49V34.05z M32.37,40.96c0.18-0.14,0.29-0.35,0.34-0.65v-0.38l-3.13-0.71
				c-0.19,0.09-0.32,0.22-0.4,0.39c-0.08,0.17-0.12,0.37-0.12,0.59c0,0.23,0.04,0.41,0.12,0.55c0.08,0.13,0.2,0.23,0.34,0.3
				c0.14,0.07,0.32,0.1,0.52,0.12c0.2,0.01,0.43,0.02,0.67,0.02h0.93C31.95,41.16,32.19,41.1,32.37,40.96 M34.76,38.96v1.41
				c0,0.43-0.08,0.79-0.25,1.1c-0.17,0.3-0.39,0.55-0.67,0.74c-0.28,0.19-0.61,0.33-0.98,0.42c-0.38,0.09-0.78,0.13-1.21,0.13h-1.49
				c-0.41,0-0.8-0.05-1.17-0.15c-0.37-0.1-0.69-0.25-0.97-0.45c-0.28-0.2-0.49-0.45-0.65-0.75c-0.16-0.3-0.24-0.65-0.24-1.05
				c0-0.41,0.1-0.73,0.29-0.96c0.19-0.23,0.45-0.46,0.77-0.69c-0.16-0.12-0.28-0.23-0.38-0.34c-0.1-0.11-0.17-0.21-0.22-0.33
				c-0.05-0.12-0.08-0.25-0.1-0.4c-0.02-0.15-0.02-0.32-0.02-0.52c0-0.11,0.03-0.23,0.1-0.35c0.07-0.13,0.15-0.25,0.25-0.36
				c0.1-0.12,0.21-0.22,0.32-0.32c0.12-0.1,0.23-0.18,0.34-0.23c-0.63-0.53-0.94-1.22-0.94-2.08v-0.23c0-0.5,0.09-0.92,0.26-1.27
				c0.17-0.35,0.41-0.65,0.72-0.88c0.31-0.23,0.67-0.4,1.09-0.51c0.42-0.11,0.88-0.17,1.37-0.17c0.33,0,0.63,0.04,0.88,0.11
				c0.26,0.07,0.54,0.18,0.85,0.34l2-0.81l0.55,1.36l-1.31,0.43c0.12,0.23,0.23,0.46,0.31,0.7c0.09,0.23,0.13,0.47,0.13,0.71v0.4
				c0,0.49-0.09,0.9-0.26,1.24c-0.18,0.34-0.42,0.62-0.73,0.84c-0.31,0.22-0.67,0.38-1.08,0.49c-0.41,0.11-0.86,0.16-1.35,0.16
				c-0.09,0-0.2,0-0.33-0.02c-0.13-0.01-0.27-0.03-0.41-0.04c-0.14-0.02-0.27-0.04-0.4-0.08c-0.13-0.03-0.22-0.07-0.29-0.1
				c-0.09,0.06-0.16,0.12-0.22,0.18c-0.06,0.07-0.09,0.18-0.09,0.33c0,0.15,0.02,0.3,0.06,0.44c0.04,0.14,0.17,0.23,0.39,0.29
				L34.76,38.96z"/>
			<path fill="#FFFFFF" d="M36.48,30.86h2.05v8.11h-2.05V30.86z M36.48,27.71h2.05v2.08h-2.05V27.71z"/>
			<path fill="#FFFFFF" d="M43.68,37.34c0.12,0,0.29-0.02,0.5-0.05c0.21-0.03,0.41-0.08,0.61-0.13l0.73-0.18l0.43,1.44
				c-0.1,0.04-0.25,0.1-0.46,0.18c-0.2,0.08-0.42,0.15-0.66,0.22c-0.24,0.07-0.47,0.13-0.69,0.18c-0.23,0.05-0.41,0.07-0.55,0.07
				c-0.76,0-1.36-0.15-1.79-0.46c-0.44-0.31-0.65-0.84-0.65-1.6v-4.75h-1.49v-1.41h1.51v-2.38h2.04v2.38h1.97v1.41h-1.97v4.48
				c0,0.15,0.04,0.29,0.13,0.41C43.4,37.28,43.52,37.34,43.68,37.34"/>
			<path fill="#FFFFFF" d="M51.17,35.23l-2.58,0.45v0.59c0,0.33,0.08,0.59,0.24,0.78c0.16,0.19,0.41,0.28,0.74,0.28
				c0.17,0,0.34-0.02,0.53-0.06c0.19-0.04,0.36-0.1,0.52-0.18c0.16-0.08,0.29-0.19,0.4-0.31c0.1-0.13,0.16-0.28,0.16-0.45V35.23z
				 M50.1,30.69c1,0,1.79,0.24,2.35,0.73c0.56,0.49,0.84,1.23,0.84,2.23v5.31h-1.62l-0.35-1.06c-0.25,0.47-0.58,0.79-0.97,0.94
				c-0.39,0.15-0.85,0.23-1.37,0.23c-0.83,0-1.44-0.24-1.84-0.74c-0.4-0.49-0.6-1.15-0.6-1.98v-1.69l4.7-0.81v-0.21
				c0-0.46-0.12-0.78-0.36-0.96c-0.24-0.17-0.59-0.26-1.05-0.26c-0.17,0-0.36,0.02-0.57,0.07c-0.21,0.04-0.44,0.1-0.66,0.17
				c-0.23,0.07-0.44,0.15-0.64,0.24c-0.2,0.09-0.36,0.17-0.5,0.25l-0.63-1.34c0.21-0.14,0.45-0.28,0.71-0.42
				c0.26-0.14,0.54-0.26,0.83-0.36c0.29-0.11,0.58-0.19,0.88-0.25C49.55,30.72,49.83,30.69,50.1,30.69"/>
			<rect x="55.04" y="27.22" fill="#FFFFFF" width="2.05" height="11.75"/>
			<path fill="#D5E835" d="M72.76,26.86l2.64-9.18h1.28l-2.66,9.18H72.76z"/>
			<path fill="#D5E835" d="M84.79,21.69c-0.23,0.29-0.55,0.52-0.98,0.68l1.6,3.47h-1.51l-1.52-3.31h-0.68v3.31H80.2v-8.16h2.74
				c0.72,0,1.27,0.17,1.64,0.5s0.56,0.86,0.56,1.58v0.78C85.13,21.02,85.02,21.4,84.79,21.69z M81.69,21.21h1.25
				c0.22,0,0.39-0.05,0.52-0.16c0.13-0.11,0.19-0.28,0.19-0.51v-0.78c0-0.26-0.06-0.45-0.17-0.57c-0.11-0.12-0.3-0.19-0.55-0.19
				h-1.24V21.21z"/>
			<path fill="#D5E835" d="M89.88,17.66l2.12,8.18h-1.51l-0.47-1.93h-2.15l-0.48,1.93h-1.52l2.18-8.18H89.88z M89.71,22.71
				l-0.76-3.54l-0.77,3.54H89.71z"/>
			<path fill="#D5E835" d="M95.37,17.68c0.84,0,1.5,0.2,1.98,0.61s0.72,1.03,0.72,1.87v3.19c0,0.88-0.25,1.52-0.74,1.91
				c-0.49,0.39-1.18,0.59-2.06,0.59h-2.26v-8.17H95.37z M96.63,20.17c0-0.41-0.11-0.71-0.32-0.89S95.78,19,95.36,19h-0.91v5.53h0.81
				c0.4,0,0.73-0.09,0.98-0.28c0.25-0.19,0.38-0.49,0.38-0.89V20.17z"/>
			<path fill="#D5E835" d="M99.79,17.68h1.49v8.16h-1.49V17.68z"/>
			<path fill="#D5E835" d="M107.1,17.73c0.34,0.11,0.64,0.27,0.89,0.49c0.25,0.21,0.45,0.47,0.6,0.78s0.22,0.66,0.22,1.05v3.42
				c0,0.41-0.07,0.77-0.22,1.07c-0.14,0.31-0.34,0.57-0.59,0.78s-0.55,0.37-0.89,0.48c-0.34,0.11-0.71,0.16-1.11,0.16h-0.16
				c-0.41,0-0.78-0.05-1.13-0.16c-0.34-0.1-0.64-0.26-0.89-0.47c-0.25-0.21-0.45-0.47-0.59-0.79c-0.14-0.31-0.21-0.67-0.21-1.08
				v-3.42c0-0.38,0.07-0.73,0.22-1.04c0.15-0.31,0.35-0.57,0.6-0.78s0.55-0.38,0.89-0.49c0.34-0.12,0.71-0.17,1.1-0.17H106
				C106.39,17.56,106.76,17.62,107.1,17.73z M107.32,20.06c0-0.38-0.13-0.67-0.38-0.87c-0.25-0.2-0.57-0.31-0.94-0.31h-0.17
				c-0.38,0-0.69,0.1-0.94,0.3c-0.25,0.2-0.38,0.49-0.38,0.86v3.42c0,0.41,0.12,0.71,0.37,0.89s0.57,0.28,0.97,0.28H106
				c0.41,0,0.73-0.09,0.97-0.28c0.24-0.19,0.35-0.49,0.35-0.89V20.06z"/>
		</g>
	</g>
</g>
<g>
</g>
<g>
</g>
<g>
</g>
<g>
</g>
<g>
</g>
<g>
</g>
</svg>
