<?xml version="1.0" encoding="utf-8"?>
<!-- Generator: Adobe Illustrator 16.0.0, SVG Export Plug-In . SVG Version: 6.00 Build 0)  -->
<!DOCTYPE svg PUBLIC "-//W3C//DTD SVG 1.1//EN" "http://www.w3.org/Graphics/SVG/1.1/DTD/svg11.dtd">
<svg version="1.1" id="Layer_1" xmlns="http://www.w3.org/2000/svg" xmlns:xlink="http://www.w3.org/1999/xlink" x="0px" y="0px"
	 width="43.393px" height="43.537px" viewBox="28.304 29.547 43.393 43.537" enable-background="new 28.304 29.547 43.393 43.537"
	 xml:space="preserve">
<path fill="#FFFFFF" d="M51.311,51.314L71.426,31.13c0.361-0.363,0.361-0.951-0.004-1.313c-0.363-0.359-0.951-0.363-1.312,0.004
	L50,50L29.891,29.821c-0.363-0.366-0.95-0.363-1.313-0.004c-0.365,0.363-0.365,0.95-0.004,1.313l20.115,20.185L28.574,71.501
	c-0.361,0.363-0.361,0.951,0.004,1.313c0.181,0.18,0.417,0.27,0.655,0.27c0.238,0,0.477-0.091,0.658-0.273L50,52.631l20.109,20.18
	c0.181,0.183,0.42,0.273,0.658,0.273c0.237,0,0.473-0.091,0.654-0.27c0.365-0.363,0.365-0.95,0.004-1.313L51.311,51.314z"/>
</svg>
